<svg width="50" height="52" viewBox="0 0 36 36" fill="none" xmlns="http://www.w3.org/2000/svg">
<path d="M0 9.82588C0 4.3992 4.3992 0 9.82588 0H26.1741C31.6008 0 36 4.3992 36 9.82588V36H9.82588C4.3992 36 0 31.6008 0 26.1741V9.82588Z" fill="#18463C"/>
<path d="M28.3447 20.9494C28.6115 20.0604 28.7377 19.1992 28.6509 18.7928C28.5676 18.4291 28.4679 17.6451 28.4115 17.0644C28.2584 15.8456 27.4994 13.7692 26.9404 13.1575C26.2712 12.3992 24.6948 11.1414 24.1782 10.9394C23.6431 10.7302 22.6991 10.982 22.5271 11.3907C22.4747 11.5151 22.4114 12.3802 22.3735 13.338C22.2608 16.0049 22.2304 16.1792 21.5946 17.6897C20.9289 19.2712 20.0926 20.1859 18.8589 20.7176C17.5139 21.3093 16.6492 21.2196 15.5182 20.3842C14.7188 19.782 13.0762 16.1805 12.6278 14.0807C11.985 10.9115 11.413 9.15651 10.8211 8.46983C10.1374 7.6438 9.12654 7.18654 8.34561 7.3572C7.86439 7.47948 7.74919 7.6 7.5238 8.33964C7.08397 9.84392 7.34879 11.6651 8.46486 14.833C8.69824 15.5037 9.03237 16.7518 9.20941 17.6074C9.66871 19.7322 10.9857 22.6269 11.8729 23.429C12.2594 23.787 12.8882 24.4882 13.2887 25.0172C14.8057 27.0796 15.1298 27.3304 17.0118 28.0662C19.1631 28.928 19.6698 28.8984 22.1298 27.8528C24.686 26.7827 25.8768 25.9445 26.7595 24.6134C27.6047 23.3711 27.7394 23.0512 28.3447 20.9494Z" fill="#9BF263"/>
</svg>
