<svg width="68" height="24" viewBox="0 0 68 24" fill="none" xmlns="http://www.w3.org/2000/svg">
<path d="M0 7.996C0 5.23598 2.23744 2.99854 4.99747 2.99854H13.3122C16.0722 2.99854 18.3097 5.23598 18.3097 7.996V21.3082H4.99746C2.23744 21.3082 0 19.0708 0 16.3108V7.996Z" fill="#062F28"/>
<path d="M14.4161 13.6537C14.5518 13.2016 14.616 12.7636 14.5719 12.5569C14.5295 12.3719 14.4788 11.9732 14.4501 11.6778C14.3722 11.0579 13.9862 10.0019 13.7019 9.69073C13.3615 9.30506 12.5598 8.66535 12.297 8.56262C12.0249 8.45623 11.5448 8.58428 11.4573 8.79215C11.4306 8.85542 11.3984 9.2954 11.3792 9.78255C11.3218 11.1389 11.3064 11.2276 10.983 11.9958C10.6444 12.8002 10.2191 13.2654 9.5916 13.5358C8.90757 13.8368 8.46777 13.7911 7.89254 13.3663C7.48597 13.06 6.6505 11.2283 6.42248 10.1603C6.09553 8.54842 5.80461 7.65583 5.50355 7.30658C5.15582 6.88646 4.64172 6.6539 4.24453 6.7407C3.99978 6.80289 3.94119 6.86418 3.82656 7.24037C3.60286 8.00545 3.73755 8.93169 4.30518 10.5429C4.42388 10.884 4.59382 11.5188 4.68386 11.954C4.91746 13.0347 5.58731 14.5069 6.03852 14.9149C6.23508 15.097 6.55491 15.4535 6.75858 15.7226C7.53013 16.7715 7.69499 16.8991 8.65219 17.2733C9.74635 17.7116 10.004 17.6966 11.2552 17.1648C12.5553 16.6206 13.1609 16.1943 13.6099 15.5172C14.0398 14.8854 14.1082 14.7227 14.4161 13.6537Z" fill="#9BF263"/>
<path d="M30.4247 21.0234C29.068 21.0234 27.8855 20.7656 26.8775 20.2502C25.8769 19.7272 25.0962 19.0072 24.5354 18.09C23.982 17.1729 23.7054 16.1269 23.7054 14.9521V3.81001H26.218V14.7474C26.218 15.9071 26.5932 16.8621 27.3436 17.6125C28.1016 18.3629 29.1286 18.7381 30.4247 18.7381C31.7284 18.7381 32.7555 18.3629 33.5058 17.6125C34.2638 16.8621 34.6428 15.9071 34.6428 14.7474V3.81001H37.1554V14.9521C37.1554 16.1269 36.875 17.1729 36.3141 18.09C35.7608 19.0072 34.9801 19.7272 33.972 20.2502C32.9639 20.7656 31.7815 21.0234 30.4247 21.0234ZM38.2078 20.7505L42.6305 14.6337L38.4807 8.74435H41.2207L42.6532 10.8818C42.8806 11.2381 43.1042 11.5867 43.324 11.9278C43.5514 12.2689 43.7712 12.6138 43.9835 12.9624C44.2109 12.6138 44.4345 12.2689 44.6543 11.9278C44.8741 11.5867 45.1053 11.2381 45.3478 10.8818L46.8031 8.74435H49.4977L45.3364 14.5996L49.7023 20.7505H46.9623L45.291 18.3174C45.0636 17.9688 44.84 17.6277 44.6202 17.2942C44.4004 16.9607 44.1843 16.6272 43.9721 16.2937C43.7523 16.6272 43.5287 16.9607 43.3013 17.2942C43.0815 17.6277 42.8579 17.9688 42.6305 18.3174L40.9251 20.7505H38.2078ZM50.641 20.7505V8.74435H53.0399V20.7505H50.641ZM51.8348 6.67511C51.4103 6.67511 51.0503 6.53489 50.7547 6.25444C50.4666 5.96642 50.3226 5.61776 50.3226 5.20846C50.3226 4.79158 50.4666 4.44291 50.7547 4.16247C51.0503 3.87444 51.4103 3.73043 51.8348 3.73043C52.2592 3.73043 52.6192 3.87444 52.9149 4.16247C53.2105 4.44291 53.3583 4.79158 53.3583 5.20846C53.3583 5.61776 53.2105 5.96642 52.9149 6.25444C52.6192 6.53489 52.2592 6.67511 51.8348 6.67511ZM58.7196 20.9438C57.5221 20.9438 56.5291 20.6406 55.7408 20.0342C54.9526 19.4203 54.5584 18.5145 54.5584 17.3169C54.5584 16.4074 54.782 15.71 55.2292 15.2249C55.684 14.7323 56.2714 14.3798 56.9915 14.1676C57.7191 13.9553 58.4885 13.8 59.2995 13.7014C60.0499 13.6105 60.6449 13.5347 61.0845 13.474C61.5241 13.4134 61.8349 13.3225 62.0168 13.2012C62.2063 13.0799 62.301 12.8715 62.301 12.5759V12.4735C62.301 11.8899 62.0888 11.4124 61.6643 11.041C61.2399 10.662 60.6449 10.4725 59.8793 10.4725C59.1138 10.4725 58.4885 10.6582 58.0034 11.0296C57.5183 11.3934 57.253 11.852 57.2075 12.4053H54.854C54.9071 11.2608 55.3884 10.3247 56.2979 9.59706C57.2075 8.86942 58.4127 8.50559 59.9134 8.50559C61.3915 8.50559 62.5549 8.86942 63.4038 9.59706C64.2528 10.3247 64.6772 11.2987 64.6772 12.519V20.7505H62.3124V19.0451H62.2669C62.0168 19.5302 61.6188 19.9698 61.0731 20.3639C60.535 20.7505 59.7505 20.9438 58.7196 20.9438ZM59.2085 19.011C60.2697 19.011 61.0504 18.7381 61.5506 18.1924C62.0585 17.639 62.3124 16.9948 62.3124 16.2596V14.8497C62.1532 14.9786 61.7932 15.0961 61.2323 15.2022C60.6714 15.3007 60.0726 15.3955 59.4359 15.4864C58.7765 15.585 58.1966 15.7707 57.6964 16.0435C57.1961 16.3164 56.946 16.756 56.946 17.3624C56.946 17.8778 57.1469 18.2833 57.5486 18.5789C57.9579 18.867 58.5112 19.011 59.2085 19.011Z" fill="white"/>
</svg>
